<svg id="Layer_1" data-name="Layer 1" xmlns="http://www.w3.org/2000/svg" viewBox="0 0 454.9 275.82"><path d="M68.45 220.37a3.59 3.59 0 00-1.85-3.14L36.07 200a3.73 3.73 0 00-1.69-.47h-.31a3.8 3.8 0 00-1.69.47L1.85 217.23A3.61 3.61 0 000 220.37l.07 46.38a1.78 1.78 0 00.93 1.56 1.82 1.82 0 001.83 0L21 258.13a3.63 3.63 0 001.81-3.13v-21.68a3.58 3.58 0 011.85-3.13l7.72-4.36a3.71 3.71 0 011.85-.49 3.65 3.65 0 011.84.49l7.72 4.36a3.59 3.59 0 011.84 3.13V255a3.66 3.66 0 001.85 3.14l18.15 10.18a1.84 1.84 0 002.76-1.56zm163.05-63.76a1.89 1.89 0 00-1.83 0 1.82 1.82 0 00-.91 1.56v45.93a1.29 1.29 0 01-.64 1.1 1.36 1.36 0 01-1.3 0l-7.64-4.32a3.76 3.76 0 00-3.69 0l-30.55 17.28a3.61 3.61 0 00-1.84 3.13v34.57a3.61 3.61 0 001.84 3.13l30.55 17.29a3.74 3.74 0 003.69 0L249.73 259a3.61 3.61 0 001.84-3.13v-86.16a3.61 3.61 0 00-1.89-3.16zm-2.83 87.91a.91.91 0 01-.46.78l-10.49 5.93a.94.94 0 01-.92 0l-10.49-5.93a.89.89 0 01-.46-.78v-11.87a.89.89 0 01.46-.78l10.49-5.94a.94.94 0 01.92 0l10.49 5.94a.91.91 0 01.46.78zm112.13-12.18a3.62 3.62 0 001.83-3.13v-8.37a3.61 3.61 0 00-1.84-3.13l-30.35-17.27a3.74 3.74 0 00-3.69 0l-30.54 17.28a3.62 3.62 0 00-1.85 3.13v34.55a3.61 3.61 0 001.87 3.14l30.35 16.95a3.76 3.76 0 003.61 0l18.36-10a1.79 1.79 0 000-3.15l-30.73-17.29a1.81 1.81 0 01-.93-1.57v-10.81a1.78 1.78 0 01.93-1.56l9.56-5.41a1.88 1.88 0 011.84 0l9.57 5.41a1.8 1.8 0 01.92 1.56v8.53a1.81 1.81 0 00.93 1.56 1.86 1.86 0 001.84 0z" transform="translate(0 -.97)" fill="#333" fill-rule="evenodd"/><path d="M124 200.25a3.74 3.74 0 013.69 0l30.55 17.28a3.58 3.58 0 011.84 3.13v34.58a3.61 3.61 0 01-1.84 3.13l-30.55 17.29a3.79 3.79 0 01-3.69 0l-30.54-17.29a3.62 3.62 0 01-1.85-3.13v-34.58a3.59 3.59 0 011.85-3.13z" transform="translate(0 -.97)" fill="#80bd01" fill-rule="evenodd"/><path d="M400.1 276.15a6.16 6.16 0 01-3-.79l-9.61-5.58c-1.44-.78-.74-1.06-.27-1.23a19.38 19.38 0 004.35-1.93.74.74 0 01.72.05l7.39 4.3a1 1 0 00.89 0l28.8-16.29a.89.89 0 00.44-.77v-32.58a.91.91 0 00-.45-.78l-28.79-16.28a.92.92 0 00-.88 0l-28.79 16.29a.89.89 0 00-.45.77v32.58a.87.87 0 00.45.76l7.89 4.46c4.28 2.1 6.9-.37 6.9-2.85v-32.17a.82.82 0 01.84-.81h3.65a.83.83 0 01.84.81v32.17c0 5.6-3.12 8.81-8.53 8.81-1.67 0-3 0-6.64-1.77l-7.55-4.26a5.93 5.93 0 01-3-5.15v-32.58a5.91 5.91 0 013-5.14l28.8-16.32a6.44 6.44 0 016.06 0l28.8 16.32a5.94 5.94 0 013 5.14v32.58a6 6 0 01-3 5.15l-28.8 16.3a6.21 6.21 0 01-3.06.79z" transform="translate(0 -.97)" fill="#80bd01"/><path d="M409 253.71c-12.6 0-15.24-5.67-15.24-10.43a.82.82 0 01.83-.81h3.72a.83.83 0 01.83.69c.56 3.71 2.24 5.59 9.86 5.59 6.07 0 8.65-1.35 8.65-4.5 0-1.82-.73-3.17-10.16-4.08-7.88-.76-12.76-2.47-12.76-8.65 0-5.69 4.9-9.09 13.11-9.09 9.23 0 13.8 3.14 14.38 9.88a.82.82 0 01-.83.88h-3.74a.83.83 0 01-.81-.63c-.9-3.91-3.08-5.16-9-5.16-6.62 0-7.39 2.26-7.39 3.95 0 2.06.91 2.65 9.85 3.82s13.06 2.77 13.06 8.86-5.23 9.68-14.36 9.68z" transform="translate(0 -.97)" fill="#80bd01"/><path d="M308.14 230.72a.75.75 0 01.71 0l5.86 3.31a.71.71 0 01.36.61v6.63a.69.69 0 01-.36.6l-5.86 3.32a.75.75 0 01-.71 0l-5.85-3.32a.69.69 0 01-.36-.6v-6.63a.71.71 0 01.36-.61z" transform="translate(0 -.97)" fill="#80bd01" fill-rule="evenodd"/><path d="M454.9 208.7a5.56 5.56 0 11-5.56-5.44 5.52 5.52 0 015.56 5.44zm-10.21 0a4.66 4.66 0 104.64-4.55 4.61 4.61 0 00-4.64 4.54zm2.57-3h2.14c.74 0 2.18 0 2.18 1.61a1.42 1.42 0 01-1.18 1.5c.86.06.91.6 1 1.38a6 6 0 00.32 1.61h-1.32c0-.28-.23-1.84-.23-1.93a.56.56 0 00-.65-.51h-1.09v2.44h-1.2zm1.18 2.68h1a.83.83 0 00.94-.87c0-.83-.58-.83-.91-.83h-1z" transform="translate(0 -.97)" fill="#80bd01"/><path d="M192.13 6.3h27.37l-68.42 99.52L82.65 6.3H135l16.09 23.08L166.81 6.3z" transform="translate(0 -.97)" fill="#41b883"/><path d="M82.65 6.3l68.43 99.52L219.5 6.3h-27.37L151.08 66l-41.4-59.7z" transform="translate(0 -.97)" fill="#41b883"/><path d="M109.68 6.3l41.4 60 41-60h-25.27l-15.73 23.08L135 6.3z" transform="translate(0 -.97)" fill="#35495e"/><path d="M249.52 57c0 9.44 9 18.25 23.32 23.22-2.85 14.61-.51 26.39 7.3 31 8 4.72 20 1.45 31.34-8.66 11.07 9.7 22.26 13.52 30.06 8.92 8-4.73 10.46-17.31 7.53-32.38 14.86-5 23.18-12.52 23.18-22.08 0-9.22-9.07-17.2-23.15-22.14 3.16-15.69.49-27.18-7.65-32-7.84-4.61-19.16-.59-30.39 9.36-11.68-10.56-22.88-13.79-31-9-7.83 4.62-10.07 16.61-7.21 31.5-13.8 4.88-23.33 13.04-23.33 22.26z" transform="translate(0 -.97)" fill="#fff"/><path d="M346.12 39.73c-1.13-.39-2.3-.77-3.51-1.12.2-.83.39-1.64.55-2.44 2.65-13.13.92-23.71-5-27.2-5.69-3.34-15 .14-24.38 8.47-.9.8-1.81 1.65-2.71 2.54-.61-.59-1.21-1.16-1.81-1.7-9.84-8.9-19.71-12.66-25.63-9.16-5.68 3.35-7.36 13.29-5 25.74.23 1.2.5 2.43.8 3.68-1.39.4-2.74.83-4 1.29-11.54 4.1-18.91 10.52-18.91 17.18 0 6.88 7.91 13.79 19.93 18 .95.33 1.93.64 2.95.94a66.61 66.61 0 00-.86 4c-2.28 12.23-.5 21.94 5.17 25.27 5.85 3.44 15.67-.09 25.23-8.61.76-.67 1.52-1.39 2.28-2.13 1 1 2 1.88 2.94 2.74 9.27 8.12 18.42 11.39 24.08 8.06 5.84-3.45 7.74-13.88 5.27-26.58-.18-1-.4-2-.65-3 .69-.21 1.37-.43 2-.65 12.49-4.22 20.62-11 20.62-18 0-6.68-7.61-13.15-19.38-17.28z" transform="translate(0 -.97)" fill="#53c1de"/><path d="M343.41 70.52c-.59.2-1.2.39-1.83.58a111.72 111.72 0 00-5.52-14.1 111.41 111.41 0 005.31-13.86c1.11.32 2.2.67 3.24 1C354.69 47.75 360.85 53 360.85 57c0 4.3-6.65 9.87-17.44 13.51zm-4.47 9a41 41 0 01.52 14.66c-.65 3.56-1.95 5.94-3.57 6.89-3.43 2-10.78-.61-18.7-7.55-.91-.8-1.82-1.65-2.74-2.55a112.39 112.39 0 009.14-11.81 108.2 108.2 0 0014.76-2.32c.22.91.42 1.81.59 2.68zm-45.27 21.2c-3.36 1.21-6 1.24-7.65.29-3.43-2-4.86-9.81-2.91-20.27.22-1.2.49-2.43.79-3.69a107.72 107.72 0 0014.69 2.17A115 115 0 00308 91c-.7.69-1.39 1.34-2.08 2a39.23 39.23 0 01-12.2 7.78zM278 70.49a39.1 39.1 0 01-12.72-6.88c-2.7-2.36-4.06-4.7-4.06-6.6 0-4 5.91-9.2 15.78-12.7q1.8-.64 3.75-1.2a116 116 0 005.32 14 115.41 115.41 0 00-5.38 14.22c-.93-.27-1.83-.56-2.69-.86zM283.22 34c-2.05-10.67-.69-18.71 2.73-20.73 3.65-2.15 11.71.92 20.21 8.6.54.5 1.09 1 1.63 1.54a114.74 114.74 0 00-9.28 11.71A111.17 111.17 0 00284 37.37q-.44-1.74-.75-3.42zm47 11.82a173.02 173.02 0 00-3.31-5.55 100.62 100.62 0 019.94 1.73c-.94 3.07-2.11 6.28-3.48 9.56q-1.49-2.86-3.14-5.78zm-19.17-19a99.46 99.46 0 016.41 7.89c-2.13-.1-4.29-.16-6.46-.16s-4.3.06-6.42.16c2.12-2.85 4.29-5.49 6.47-7.89zm-19.3 19.06c-1.07 1.9-2.1 3.82-3.07 5.74-1.36-3.28-2.52-6.5-3.47-9.61 3.11-.71 6.43-1.29 9.88-1.73a145.17 145.17 0 00-3.34 5.6zm3.44 28.34a95.71 95.71 0 01-10-1.64c1-3.17 2.15-6.46 3.53-9.81q1.47 2.88 3.09 5.75c1.11 1.94 2.25 3.85 3.42 5.7zm16 13.46a105.54 105.54 0 01-6.56-8c2.09.09 4.21.13 6.38.13s4.41 0 6.58-.15a102.26 102.26 0 01-6.4 8zm22.22-25.08a100.58 100.58 0 013.66 9.77 95.74 95.74 0 01-10.17 1.77q1.69-2.75 3.35-5.65c1.11-2 2.16-3.93 3.16-5.89zm-7.19 3.52q-2.57 4.52-5.23 8.59c-3.24.24-6.58.36-10 .36s-6.69-.11-9.87-.32c-1.85-2.75-3.64-5.63-5.33-8.61-1.69-3-3.24-6-4.65-8.94 1.41-3 3-6 4.64-9 1.68-3 3.45-5.84 5.28-8.57 3.24-.25 6.57-.38 9.93-.38 3.37 0 6.7.13 9.94.38 1.8 2.71 3.56 5.57 5.25 8.54s3.28 6 4.7 8.91c-1.42 3-3 6-4.68 9zm9.6-53c3.65 2.14 5.07 10.79 2.78 22.13-.15.72-.31 1.46-.49 2.21a110 110 0 00-14.58-2.35 110.28 110.28 0 00-9.21-11.71c.84-.82 1.67-1.6 2.51-2.34 8-7.14 15.56-9.95 19-7.94z" transform="translate(0 -.97)" fill="#fff"/><path d="M311 47.1a9.92 9.92 0 11-9.73 9.9 9.83 9.83 0 019.73-9.9" transform="translate(0 -.97)" fill="#53c1de"/></svg>