<svg id="Capa_1" data-name="Capa 1" xmlns="http://www.w3.org/2000/svg" viewBox="0 0 793.7 276.55"><path d="M405.68 571.07H448v200.11c-40.53 6.63-79.34 10.83-107.1-4.7-35.75-20-38.63-83.5-10.34-111.79 14.34-14.34 43.22-24.44 74.22-17.85v-63c-.12-1.28-.19-2.61.9-2.77zM355 706.36c-.14 26.23 19.1 41.87 49.79 34.76V671.6c-31.13-9.47-49.71 9.68-49.79 34.76zm161.54-135.29v44.16h-42.28v-44.16zM1025.73 635c35.19-3.76 61.75 11.77 72.34 35.7 18.07 40.83-1 87.68-30.06 101.46-15.07 7.14-30.85 7.82-45.1 6.58-44-3.84-71.84-48.74-56.37-98.65a67.5 67.5 0 016.58-15c9.58-16.35 25.74-27.26 52.61-30.09zm-1.88 108c46.09 17.91 51.19-82.5 4.7-73.28-28.87 5.72-27.95 64.28-4.7 73.28zM649 773.06c-34.92 2-88 13.91-107.1-9.39-11.22-13.69-10-39.8 0-52.61 13-16.56 41.21-20.17 66.7-22.55 2.32-5.7.76-15-1.87-18.79-23.33-5.94-46.5 3.26-63 10.33v-32.88c24.84-11.41 82.37-23.43 99.59 2.82 9 13.78 5.63 37.83 5.63 59.19zm-74.22-46c-11.69 19.65 17.69 24.36 36.64 18.79v-29.16c-14.56 2.04-31.13 1.09-36.64 10.31zm222.66 47.88h-42.28v-54.49c0-17.94 2.9-40.69-6.58-47.91-7.42-5.66-25-2.82-35.69 0v102.4h-42.28V644.35c43.22-11.22 121.23-23.26 126.83 31 2.76 26.76-2.05 66.9 0 99.59zm169.1-134.34c-3.76 11.26-9.27 20.79-14.09 31-4.36 1-8.13-1.73-10.33 0-1 45.79 9.75 107.88-8.46 140.92-11 19.89-31.15 32.65-62 34.76a126.21 126.21 0 01-56.37-8.46v-39.45c19.28 11.26 68 20.44 81.73-2.82 4-6.85 3.78-13.92 5.64-24.43-8.83.46-17.41 4.55-28.19 4.7-44.3.59-71.71-34.69-61.06-83.61 4.12-18.93 15.21-34.17 30.06-43.22 30.86-18.81 78.28-17.38 123.07-9.39zm-106.16 89.24c7.12 11.51 26.38 15.83 42.28 8.46q-1.3-33-.94-67.64c-36.54-9.66-58.31 31.73-41.34 59.18z" transform="translate(-311.42 -571.07)" fill="#0c4b33" fill-rule="evenodd"/><path d="M516.54 637.59v91.32c-1.79 37.17-1.38 66.76-15 84.55-2.69 3.5-8.39 8.62-13.16 12.21-4 3-11.64 9.13-16 9.4s-15.59-6.07-20.67-8.46c-6.67-3.14-12.83-7.31-19.72-9.39 16.08-10 31.34-17.44 37.57-37.58 5.42-17.52 4.7-42.91 4.7-67.64 0-24.43.11-52.83.11-74.4z" transform="translate(-311.42 -571.07)" fill="#0c4b33" fill-rule="evenodd"/></svg>