<svg id="svg2" xmlns="http://www.w3.org/2000/svg" viewBox="0 0 1164.3 2426.74"><g id="layer1"><path id="path821" d="M1189.67 2444.25c-76-15.54-146.77-50.94-202-100.15-142.45-126.49-186.91-325.49-111.37-502.91 18.56-43.6 48.78-87.63 85.9-126l32.8-33.72 2.16 197.71c2.16 189.51 2.59 199 11.66 222.74 18.13 47.92 37.12 78.14 70.36 110.95 85.47 85 210.66 106.19 317.28 54 100.15-49.22 163.18-156.7 155.84-265.49-4.75-72.95-29.36-126.48-82.45-179.57-40.15-40.15-87.2-66.48-138.14-77.27-52.23-10.8-49.64-12.52-49.64 31.51v38l28.49 5.18c110.51 20.28 183.89 129.07 161 238.71-7.33 35-23.74 66.05-50.07 94.54-40.15 43.17-96.7 63.89-145.91 63.89-81.58 0-149.36-46.62-182.6-114.83 0 0-8.63-19.42-11.22-31.51-16.4-71.23-6-220.59-6-220.59l-1.3-218.86 12.95-6.47c6.91-3.89 13.81-6.48 15.11-6.48s2.59 100.58 3.45 223.61c0 0-15.54 161 3.89 222.75 2.59 9.06 8.2 24.17 8.2 24.17 16.84 34.54 44 65.18 79.43 82 26.76 12.52 40.58 18.56 80.29 18.56 25.9 0 48.78-8.2 75.54-20.29 31.09-14.24 66.91-52.23 80.3-87.2 36.26-95.83-14.25-198.57-112.24-227.49-40.15-11.66-39.28-12.52-39.28 31.08v38l19 5.18c69.07 18.56 90.22 111.37 35.83 158.86-19 16.83-36.26 24.17-66.48 24.17-32.37 0-63.45-19.43-79.43-49.64a92.25 92.25 0 01-10.36-42.74c0-72.09-1.72-202.46-1.72-202.46l-1.3-223.17 9.93-2.59c5.61-1.3 27.63-4.75 49.21-7.34 73-9.5 180.87 14.67 253.4 56.12 98.85 56.55 173.53 153.67 204.61 265.91 10.79 38.42 12.09 50.07 12.09 111.8s-1.3 73.39-11.66 111.38c-42.3 152.81-150.22 261.59-304.33 308.22-32.38 9.92-47.48 11.65-104.9 12.95-46.19.43-76-.87-96.26-5.18z" transform="translate(-665.85 -22.77)" fill="#c60c30"/></g><path d="M1388.73 814.68a17.91 17.91 0 01-15.37-8.7L1237.79 579.9l-253.26 68.87a17.91 17.91 0 01-20.53-8.89L668 83a17.93 17.93 0 0113.43-26.18L933 22.93a17.9 17.9 0 0117.76 8.54l303.85 506.72 352.9-96-117.9-166.1a17.92 17.92 0 0110.5-27.81l165.12-39a17.91 17.91 0 0118.11 6.24l142.88 178.39a17.92 17.92 0 01-9.29 28.5l-150.52 40.93 131.23 185a17.92 17.92 0 01-8.64 27.26l-394.3 138.07a18 18 0 01-5.97 1.01zm-115-244.55L1396.59 775l358-125.38-125.02-176.26zm-562-481.26l277.2 521.55L1218.64 548 926.05 60zm822.55 188.18l110.04 155.15 136.84-37.2-118.72-148.23z" transform="translate(-665.85 -22.77)" fill="#d15341"/><path d="M922.5 866.1h15v161.4h-15zm162.14 44.95v116.45h-14.77v-20a64.13 64.13 0 01-21.13 17.23 57.1 57.1 0 01-25.64 5.78q-24.72 0-42.22-17.92T963.38 969a59 59 0 0117.66-43q17.65-17.88 42.49-17.88a55 55 0 0126 6.1 59 59 0 0120.39 18.3v-21.4zm-59.88 11.45a45.19 45.19 0 00-39.93 23.42 47.17 47.17 0 00.06 47 45.85 45.85 0 0016.94 17.48 44.27 44.27 0 0022.82 6.26 46.83 46.83 0 0023.31-6.2 43.34 43.34 0 0016.94-16.79 47.84 47.84 0 005.94-23.84q0-20.21-13.31-33.78t-32.77-13.55zm87.92-11.45H1128v17q6.85-10.07 14.45-15a28.46 28.46 0 0115.84-5q6.21 0 13.27 4l-7.81 12.63a20.94 20.94 0 00-7.92-2q-7.5 0-14.45 6.15t-10.6 19.11q-2.77 9.95-2.78 40.24v39.39h-15.31zm187.63 0v116.45h-14.77v-20a64.16 64.16 0 01-21.14 17.23 57.1 57.1 0 01-25.64 5.78q-24.72 0-42.22-17.92T1179 969a59 59 0 0117.66-43q17.67-17.88 42.49-17.88a55 55 0 0126 6.1 59.14 59.14 0 0120.39 18.3v-21.4zm-59.89 11.45a45.19 45.19 0 00-39.93 23.42 47.17 47.17 0 00.06 47 45.85 45.85 0 0016.94 17.48 44.28 44.28 0 0022.83 6.26 46.82 46.82 0 0023.3-6.2 43.44 43.44 0 0017-16.79 47.94 47.94 0 005.93-23.84q0-20.21-13.31-33.78t-32.82-13.55zm82.58-11.45h15.94l39.06 84.88 38.62-84.88h16l-53.3 116.45h-2.78zm230.54 77.81l12.62 6.63a68.82 68.82 0 01-14.35 19.7 57.28 57.28 0 01-18.32 11.4 64 64 0 01-23 3.9q-28.5 0-44.57-18.67t-16.07-42.23a62.25 62.25 0 0113.61-39.49q17.25-22.05 46.17-22.05 29.78 0 47.56 22.59 12.64 15.95 12.86 39.81h-104.81q.42 20.28 13 33.26t31 13a49.85 49.85 0 0017.31-3.1 45.39 45.39 0 0014.3-8.21q5.83-5.13 12.69-16.54zm0-31.36q-3-12-8.74-19.16a41.32 41.32 0 00-15.16-11.56 46.56 46.56 0 00-19.83-4.39 42.67 42.67 0 00-29.46 11q-9 8-13.61 24.08zm42.16-91.4h15v161.4h-15z" transform="translate(-665.85 -22.77)" fill="#6d6d6d"/></svg>